<?xml version="1.0" standalone="no"?>
<!DOCTYPE svg PUBLIC "-//W3C//DTD SVG 20010904//EN"
 "http://www.w3.org/TR/2001/REC-SVG-20010904/DTD/svg10.dtd">
<svg version="1.0" xmlns="http://www.w3.org/2000/svg"
 width="16.000000pt" height="16.000000pt" viewBox="0 0 16.000000 16.000000"
 preserveAspectRatio="xMidYMid meet">
<metadata>
Created by potrace 1.11, written by Peter Selinger 2001-2013
</metadata>
<g transform="translate(0.000000,16.000000) scale(0.003125,-0.003125)"
fill="#000000" stroke="none">
<path d="M0 2560 l0 -2560 2560 0 2560 0 0 2560 0 2560 -2560 0 -2560 0 0
-2560z m3050 135 l0 -1125 -25 0 -25 0 0 1125 0 1125 25 0 25 0 0 -1125z m780
0 l0 -1125 -25 0 -25 0 0 1125 0 1125 25 0 25 0 0 -1125z m-1480 1035 l0 -30
-570 0 -570 0 0 -450 0 -450 540 0 540 0 0 -30 0 -30 -540 0 -540 0 0 -555 0
-555 570 0 570 0 0 -30 0 -30 -595 0 -595 0 0 1095 0 1095 595 0 595 0 0 -30z"/>
</g>
</svg>
